{"glyphs":{":":{"x_min":0,"x_max":171,"ha":171,"o":"m 65 107 l 163 107 l 132 -10 l 34 -10 z m 144 400 l 242 400 l 210 283 l 112 283 z"},"$":{"x_min":0,"x_max":574,"ha":574,"o":"m 412 283 l 378 156 l 439 156 q 455 156 473 174 q 491 192 499 220 q 502 232 502 243 q 502 256 497 266 q 488 283 473 283 z m 379 527 l 318 527 q 302 527 284 510 q 266 492 259 464 q 255 451 255 440 q 255 428 260 418 q 269 400 285 400 l 346 400 z m 314 283 l 253 283 q 193 283 167 337 q 152 367 152 404 q 152 432 161 464 q 181 537 235 591 q 290 645 350 645 l 411 645 l 424 693 l 521 693 l 509 645 l 710 645 l 678 527 l 477 527 l 443 400 l 504 400 q 564 400 590 347 q 604 316 604 279 q 604 251 596 220 q 576 146 521 93 q 467 39 407 39 l 346 39 l 333 -10 l 236 -10 l 249 39 l 47 39 l 79 156 l 280 156 z"},"?":{"x_min":0,"x_max":574,"ha":574,"o":"m 363 283 q 347 283 329 265 q 311 248 303 220 l 281 137 l 183 137 l 206 220 q 225 293 280 347 q 334 400 395 400 l 504 400 q 520 400 538 418 q 556 436 564 464 l 577 513 q 581 526 581 537 q 581 549 576 559 q 567 576 551 576 l 191 576 l 222 693 l 583 693 q 642 693 668 640 q 683 609 683 573 q 683 544 674 513 l 662 464 q 642 391 587 337 q 532 283 473 283 z m 175 107 l 273 107 l 242 -10 l 144 -10 z"},"<":{"x_min":0,"x_max":500,"ha":500,"o":"m 107 263 l 149 421 l 625 602 l 593 482 l 226 343 l 226 341 l 518 201 l 486 82 z"},"'":{"x_min":0,"x_max":171,"ha":171,"o":"m 228 576 l 191 576 l 222 693 l 320 693 l 285 562 q 279 539 260 521 q 242 503 220 503 l 196 503 l 185 571 l 221 571 q 227 571 228 576 z"},"=":{"x_min":0,"x_max":500,"ha":500,"o":"m 170 498 l 597 498 l 566 381 l 139 381 z m 118 303 l 545 303 l 514 186 l 86 186 z"},"a":{"x_min":0,"x_max":500,"ha":500,"o":"m 180 171 q 177 158 177 147 q 177 135 182 125 q 190 107 206 107 l 395 107 l 475 405 l 286 405 q 270 405 251 387 q 233 370 226 342 z m 461 -10 l 175 -10 q 115 -10 89 44 q 74 75 74 111 q 74 139 83 171 l 128 342 q 148 415 203 469 q 257 522 317 522 l 604 522 z"},"L":{"x_min":0,"x_max":537,"ha":537,"o":"m 529 107 l 498 -10 l 175 -10 q 115 -10 89 44 q 74 75 74 111 q 74 139 83 171 l 222 693 l 320 693 l 180 171 q 177 158 177 147 q 177 135 182 125 q 190 107 206 107 z"},"3":{"x_min":0,"x_max":574,"ha":574,"o":"m 222 283 l 254 400 l 504 400 q 520 400 538 418 q 556 436 564 464 l 577 513 q 581 526 581 537 q 581 549 576 559 q 567 576 551 576 l 191 576 l 222 693 l 583 693 q 642 693 668 640 q 683 609 683 573 q 683 544 674 513 l 662 464 q 642 391 593 341 q 605 315 605 282 q 605 254 596 220 l 583 171 q 563 98 509 44 q 454 -10 395 -10 l 34 -10 l 65 107 l 426 107 q 441 107 460 125 q 478 143 485 171 l 499 220 q 502 232 502 243 q 502 256 497 266 q 488 283 473 283 z"},";":{"x_min":0,"x_max":171,"ha":171,"o":"m 144 400 l 242 400 l 210 283 l 112 283 z m 71 -10 l 34 -10 l 65 107 l 163 107 l 128 -24 q 122 -47 103 -65 q 85 -83 63 -83 l 39 -83 l 28 -15 l 63 -15 q 69 -15 71 -10 z"},"J":{"x_min":0,"x_max":537,"ha":537,"o":"m 389 107 q 405 107 423 125 q 441 143 449 171 l 588 693 l 686 693 l 546 171 q 527 98 472 44 q 417 -10 358 -10 l 34 -10 l 65 107 z"},"V":{"x_min":0,"x_max":562,"ha":562,"o":"m 213 -10 l 194 693 l 293 693 l 309 107 l 310 107 l 640 693 l 738 693 l 343 -10 z"},"\"":{"x_min":0,"x_max":281,"ha":281,"o":"m 228 576 l 191 576 l 222 693 l 320 693 l 285 562 q 279 539 260 521 q 242 503 220 503 l 196 503 l 185 571 l 221 571 q 227 571 228 576 z m 337 576 l 301 576 l 332 693 l 430 693 l 395 562 q 389 539 370 521 q 352 503 330 503 l 306 503 l 295 571 l 331 571 q 336 571 337 576 z"},"7":{"x_min":0,"x_max":586,"ha":586,"o":"m 689 693 l 275 -10 l 168 -10 l 513 576 l 191 576 l 222 693 z"},"S":{"x_min":0,"x_max":610,"ha":610,"o":"m 253 283 q 193 283 167 337 q 152 367 152 404 q 152 432 161 464 l 174 513 q 194 586 248 640 q 303 693 363 693 l 759 693 l 728 576 l 332 576 q 315 576 297 558 q 279 541 271 513 l 259 464 q 255 451 255 440 q 255 428 260 418 q 269 400 285 400 l 541 400 q 601 400 626 347 q 641 316 641 279 q 641 251 633 220 l 620 171 q 600 98 545 44 q 491 -10 431 -10 l 34 -10 l 65 107 l 462 107 q 478 107 496 125 q 515 143 522 171 l 535 220 q 539 232 539 243 q 539 256 534 266 q 525 283 509 283 z"},"}":{"x_min":0,"x_max":427,"ha":427,"o":"m 310 341 q 298 367 298 400 q 298 429 308 464 l 333 562 q 337 574 337 585 q 337 598 333 607 q 324 625 308 625 l 204 625 l 235 742 l 339 742 q 399 742 425 688 q 439 658 439 621 q 439 593 431 562 l 405 464 q 401 451 401 440 q 401 428 406 418 q 415 400 431 400 l 498 400 l 466 283 l 399 283 q 383 283 365 265 q 347 248 340 220 l 313 122 q 294 49 239 -5 q 185 -59 125 -59 l 21 -59 l 52 59 l 156 59 q 172 59 190 76 q 208 94 216 122 l 242 220 q 262 293 310 341 z"},"Z":{"x_min":0,"x_max":610,"ha":610,"o":"m 552 576 l 191 576 l 222 693 l 767 693 l 241 107 l 603 107 l 571 -10 l 27 -10 z"},"x":{"x_min":0,"x_max":452,"ha":452,"o":"m 235 256 l 145 522 l 264 522 l 320 354 l 468 522 l 587 522 l 354 256 l 444 -10 l 325 -10 l 268 159 l 121 -10 l 2 -10 z"},")":{"x_min":0,"x_max":391,"ha":391,"o":"m 229 59 q 245 59 263 76 q 282 94 289 122 l 407 562 q 410 574 410 585 q 410 598 406 607 q 397 625 381 625 l 204 625 l 235 742 l 413 742 q 472 742 498 688 q 513 658 513 621 q 513 593 504 562 l 387 122 q 367 49 312 -5 q 258 -59 198 -59 l 21 -59 l 52 59 z"},"&":{"x_min":0,"x_max":573,"ha":573,"o":"m 316 107 q 332 107 350 125 q 368 143 375 171 l 401 269 q 405 282 405 292 q 405 305 400 314 q 392 332 376 332 l 266 332 q 250 332 232 314 q 214 296 206 269 l 180 171 q 177 158 177 147 q 177 135 182 125 q 190 107 206 107 z m 408 449 q 423 449 441 467 q 459 485 467 513 q 471 526 471 537 q 471 549 466 559 q 457 576 441 576 l 332 576 q 315 576 297 558 q 279 541 271 513 q 268 500 268 489 q 268 477 273 467 q 282 449 298 449 z m 388 36 q 344 -10 285 -10 l 175 -10 q 115 -10 89 44 q 74 75 74 111 q 74 139 83 171 l 108 269 q 128 342 176 391 q 165 417 165 449 q 165 478 174 513 q 194 586 248 640 q 303 693 363 693 l 473 693 q 532 693 559 640 q 573 609 573 573 q 573 544 564 513 q 537 444 509 415 q 533 439 591 449 l 659 449 l 626 332 l 559 332 q 543 332 525 314 q 507 296 499 269 l 473 171 q 470 158 470 147 q 470 135 475 125 q 483 107 499 107 l 566 107 l 535 -10 l 468 -10 q 408 -10 388 36 z"},"_":{"x_min":0,"x_max":537,"ha":537,"o":"m 490 -39 l 458 -156 l -5 -156 l 26 -39 z"},"v":{"x_min":0,"x_max":452,"ha":452,"o":"m 255 108 l 484 522 l 583 522 l 288 -10 l 159 -10 l 149 522 l 248 522 z"},"O":{"x_min":0,"x_max":610,"ha":610,"o":"m 180 171 q 177 158 177 147 q 177 135 182 125 q 190 107 206 107 l 462 107 q 478 107 496 125 q 515 143 522 171 l 613 513 q 617 526 617 537 q 617 549 612 559 q 604 576 588 576 l 332 576 q 315 576 297 558 q 279 541 271 513 z m 620 171 q 600 98 545 44 q 491 -10 431 -10 l 175 -10 q 115 -10 89 44 q 74 75 74 111 q 74 139 83 171 l 174 513 q 194 586 248 640 q 303 693 363 693 l 619 693 q 679 693 705 640 q 720 609 720 573 q 720 544 711 513 z"},"(":{"x_min":0,"x_max":391,"ha":391,"o":"m 370 59 l 338 -59 l 162 -59 q 102 -59 76 -5 q 61 26 61 62 q 61 90 69 122 l 187 562 q 207 635 261 688 q 316 742 376 742 l 553 742 l 521 625 l 345 625 q 329 625 310 607 q 292 589 285 562 l 167 122 q 164 109 164 99 q 164 86 168 77 q 177 59 193 59 z"},"C":{"x_min":0,"x_max":610,"ha":610,"o":"m 603 107 l 571 -10 l 175 -10 q 115 -10 89 44 q 74 75 74 111 q 74 139 83 171 l 174 513 q 194 586 248 640 q 303 693 363 693 l 759 693 l 728 576 l 332 576 q 315 576 297 558 q 279 541 271 513 l 180 171 q 177 158 177 147 q 177 135 182 125 q 190 107 206 107 z"},"W":{"x_min":0,"x_max":763,"ha":763,"o":"m 139 -10 l 196 693 l 294 693 l 250 153 l 511 693 l 624 693 l 580 153 l 840 693 l 938 693 l 600 -10 l 469 -10 l 508 485 l 270 -10 z"},"A":{"x_min":0,"x_max":610,"ha":610,"o":"m 458 576 l 305 303 l 467 303 l 460 576 z m 556 693 l 575 -10 l 476 -10 l 471 186 l 239 186 l 129 -10 l 31 -10 l 426 693 z"},"f":{"x_min":0,"x_max":354,"ha":354,"o":"m 243 405 l 132 -10 l 34 -10 l 174 513 q 194 586 248 640 q 303 693 363 693 l 504 694 l 472 577 l 332 576 q 315 576 297 558 q 279 541 274 522 l 458 522 l 426 405 z"},"Q":{"x_min":0,"x_max":610,"ha":610,"o":"m 254 -10 l 175 -10 q 115 -10 89 44 q 74 75 74 111 q 74 139 83 171 l 174 513 q 194 586 248 640 q 303 693 363 693 l 619 693 q 679 693 705 640 q 720 609 720 573 q 720 544 711 513 l 620 171 q 600 98 545 44 q 491 -10 431 -10 l 352 -10 l 325 -107 l 228 -107 z m 285 107 l 312 205 l 409 205 l 383 107 l 462 107 q 478 107 496 125 q 515 143 522 171 l 613 513 q 617 526 617 537 q 617 549 612 559 q 604 576 588 576 l 332 576 q 315 576 297 558 q 279 541 271 513 l 180 171 q 177 158 177 147 q 177 135 182 125 q 190 107 206 107 z"},"w":{"x_min":0,"x_max":562,"ha":562,"o":"m 103 -10 l 150 522 l 249 522 l 217 171 l 374 522 l 468 522 l 437 171 l 593 522 l 691 522 l 454 -10 l 322 -10 l 345 239 l 234 -10 z"},"-":{"x_min":0,"x_max":500,"ha":500,"o":"m 144 400 l 571 400 l 540 283 l 112 283 z"},"E":{"x_min":0,"x_max":610,"ha":610,"o":"m 210 283 l 180 171 q 177 158 177 147 q 177 135 182 125 q 190 107 206 107 l 603 107 l 571 -10 l 175 -10 q 115 -10 89 44 q 74 75 74 111 q 74 139 83 171 l 174 513 q 194 586 248 640 q 303 693 363 693 l 759 693 l 728 576 l 332 576 q 315 576 297 558 q 279 541 271 513 l 242 400 l 608 400 l 576 283 z"},"s":{"x_min":0,"x_max":500,"ha":500,"o":"m 281 522 l 567 522 l 536 405 l 249 405 q 248 405 245 402 q 241 398 239 391 l 223 330 q 222 325 222 323 q 222 320 223 318 q 224 315 225 315 l 445 315 q 490 315 509 276 q 519 253 519 227 q 519 207 513 183 l 497 123 q 482 69 443 30 q 403 -10 358 -10 l 34 -10 l 65 107 l 389 107 q 390 107 393 111 q 397 114 399 122 l 415 183 q 417 188 417 191 q 417 193 416 194 q 414 198 414 198 l 194 198 q 149 198 130 237 q 119 260 119 287 q 119 307 125 330 l 141 391 q 156 444 196 483 q 236 522 281 522 z"},">":{"x_min":0,"x_max":500,"ha":500,"o":"m 59 82 l 90 201 l 458 341 l 458 343 l 166 482 l 198 602 l 577 421 l 534 263 z"},"l":{"x_min":0,"x_max":171,"ha":171,"o":"m 222 693 l 320 693 l 132 -10 l 34 -10 z"},"8":{"x_min":0,"x_max":574,"ha":574,"o":"m 426 107 q 441 107 460 125 q 478 143 485 171 l 499 220 q 502 232 502 243 q 502 256 497 266 q 488 283 473 283 l 253 283 q 237 283 219 265 q 201 248 193 220 l 180 171 q 177 158 177 147 q 177 135 182 125 q 190 107 206 107 z m 504 400 q 520 400 538 418 q 556 436 564 464 l 577 513 q 581 526 581 537 q 581 549 576 559 q 567 576 551 576 l 332 576 q 315 576 297 558 q 279 541 271 513 l 259 464 q 255 451 255 440 q 255 428 260 418 q 269 400 285 400 z m 165 343 q 152 370 152 403 q 152 432 161 464 l 174 513 q 194 586 248 640 q 303 693 363 693 l 583 693 q 642 693 668 640 q 683 609 683 573 q 683 544 674 513 l 662 464 q 643 394 593 342 l 591 346 q 592 344 593 342 q 590 340 588 338 l 593 341 q 604 312 604 279 q 604 251 596 220 l 583 171 q 563 98 509 44 q 454 -10 395 -10 l 175 -10 q 115 -10 89 44 q 74 75 74 111 q 74 139 83 171 l 96 220 q 114 290 164 341 q 166 338 167 338 l 167 339 q 166 340 165 342 q 167 344 169 346 z"},"\\":{"x_min":0,"x_max":372,"ha":372,"o":"m 317 693 l 337 -10 l 238 -10 l 219 693 z"},"e":{"x_min":0,"x_max":500,"ha":500,"o":"m 184 186 l 180 171 q 177 158 177 147 q 177 135 182 125 q 190 107 206 107 l 456 107 l 425 -10 l 175 -10 q 115 -10 89 44 q 74 75 74 111 q 74 139 83 171 l 128 342 q 148 415 203 469 q 257 522 317 522 l 464 522 q 523 522 549 469 q 564 438 564 401 q 564 374 556 342 l 514 186 z m 447 303 l 458 342 q 461 354 461 365 q 461 378 457 388 q 448 405 432 405 l 286 405 q 270 405 251 387 q 233 370 226 342 l 215 303 z"},"b":{"x_min":0,"x_max":500,"ha":500,"o":"m 458 342 q 461 354 461 365 q 461 378 457 388 q 448 405 432 405 l 243 405 l 163 107 l 353 107 q 368 107 386 125 q 405 143 412 171 z m 222 693 l 320 693 l 274 522 l 464 522 q 523 522 549 469 q 564 438 564 401 q 564 374 556 342 l 510 171 q 490 98 436 44 q 381 -10 321 -10 l 34 -10 z"},"%":{"x_min":0,"x_max":610,"ha":610,"o":"m 265 488 q 262 476 262 465 q 262 452 267 443 q 275 425 291 425 l 328 425 q 343 425 362 443 q 380 460 387 488 l 394 513 q 397 526 397 537 q 397 549 393 559 q 384 576 368 576 l 332 576 q 315 576 297 558 q 279 541 271 513 z m 400 171 q 396 158 396 147 q 396 135 401 125 q 410 107 426 107 l 462 107 q 478 107 496 125 q 515 143 522 171 l 528 195 q 532 208 532 219 q 532 231 527 241 q 519 259 503 259 l 466 259 q 450 259 432 241 q 414 223 406 195 z m 329 308 q 328 308 296 308 l 260 308 q 200 308 174 361 q 159 392 159 429 q 159 457 167 488 l 174 513 q 194 586 248 640 q 303 693 363 693 l 399 693 q 459 693 486 639 q 498 613 500 613 l 501 614 l 545 693 l 644 693 l 465 375 q 465 376 498 376 l 534 376 q 594 376 620 322 q 634 292 634 255 q 634 227 626 195 l 620 171 q 600 98 545 44 q 491 -10 431 -10 l 395 -10 q 334 -10 308 45 q 296 70 293 70 l 293 69 l 249 -10 l 150 -10 z"},"m":{"x_min":0,"x_max":720,"ha":720,"o":"m 403 342 q 407 354 407 365 q 407 378 402 388 q 393 405 377 405 l 286 405 q 270 405 251 387 q 233 370 226 342 l 132 -10 l 34 -10 l 128 342 q 148 415 203 469 q 257 522 317 522 l 409 522 q 469 522 486 468 q 532 522 592 522 l 684 522 q 743 522 769 469 q 784 438 784 401 q 784 374 775 342 l 681 -10 l 583 -10 l 678 342 q 681 354 681 365 q 681 378 676 388 q 667 405 652 405 l 560 405 q 544 405 526 387 q 508 370 501 342 l 407 -10 l 309 -10 z"},"#":{"x_min":0,"x_max":500,"ha":500,"o":"m 243 498 l 283 645 l 380 645 l 341 498 l 426 498 l 466 645 l 563 645 l 524 498 l 597 498 l 566 381 l 493 381 l 472 303 l 545 303 l 514 186 l 440 186 l 401 39 l 303 39 l 343 186 l 257 186 l 218 39 l 120 39 l 160 186 l 86 186 l 118 303 l 191 303 l 212 381 l 139 381 l 170 498 z m 310 381 l 289 303 l 374 303 l 395 381 z"},",":{"x_min":0,"x_max":171,"ha":171,"o":"m 71 -10 l 34 -10 l 65 107 l 163 107 l 128 -24 q 122 -47 103 -65 q 85 -83 63 -83 l 39 -83 l 28 -15 l 63 -15 q 69 -15 71 -10 z"},"n":{"x_min":0,"x_max":500,"ha":500,"o":"m 132 -10 l 34 -10 l 128 342 q 148 415 203 469 q 257 522 317 522 l 464 522 q 523 522 549 469 q 564 438 564 401 q 564 374 556 342 l 461 -10 l 364 -10 l 458 342 q 461 354 461 365 q 461 378 457 388 q 448 405 432 405 l 286 405 q 270 405 251 387 q 233 370 226 342 z"},"h":{"x_min":0,"x_max":500,"ha":500,"o":"m 132 -10 l 34 -10 l 222 693 l 320 693 l 274 522 l 464 522 q 523 522 549 469 q 564 438 564 401 q 564 374 556 342 l 461 -10 l 364 -10 l 458 342 q 461 354 461 365 q 461 378 457 388 q 448 405 432 405 l 243 405 z"},"z":{"x_min":0,"x_max":500,"ha":500,"o":"m 248 107 l 493 107 l 461 -10 l 27 -10 l 390 405 l 145 405 l 177 522 l 611 522 z"},"B":{"x_min":0,"x_max":610,"ha":610,"o":"m 242 400 l 541 400 q 557 400 575 418 q 593 436 601 464 l 613 513 q 617 526 617 537 q 617 549 612 559 q 604 576 588 576 l 289 576 z m 210 283 l 163 107 l 462 107 q 478 107 496 125 q 515 143 522 171 l 535 220 q 539 232 539 243 q 539 256 534 266 q 525 283 509 283 z m 629 341 q 641 312 641 279 q 641 251 633 220 l 620 171 q 600 98 545 44 q 491 -10 431 -10 l 34 -10 l 222 693 l 619 693 q 679 693 705 640 q 720 609 720 573 q 720 544 711 513 l 698 464 q 679 394 629 341 z"},"K":{"x_min":0,"x_max":586,"ha":586,"o":"m 222 693 l 320 693 l 210 282 l 649 693 l 770 693 l 431 376 l 579 -10 l 469 -10 l 350 300 l 169 131 l 132 -10 l 34 -10 z"},"R":{"x_min":0,"x_max":610,"ha":610,"o":"m 229 352 l 528 352 q 543 352 562 369 q 580 387 587 415 l 613 513 q 617 526 617 537 q 617 549 612 559 q 604 576 588 576 l 289 576 z m 132 -10 l 34 -10 l 222 693 l 619 693 q 679 693 705 640 q 720 609 720 573 q 720 544 711 513 l 685 415 q 666 342 617 293 q 629 267 629 234 q 629 206 620 171 l 571 -10 l 474 -10 l 522 171 q 525 184 525 194 q 525 207 521 217 q 512 234 497 234 l 197 234 z"},"T":{"x_min":0,"x_max":610,"ha":610,"o":"m 759 693 l 728 576 l 508 576 l 352 -10 l 254 -10 l 411 576 l 191 576 l 222 693 z"},"P":{"x_min":0,"x_max":610,"ha":610,"o":"m 229 352 l 528 352 q 543 352 562 369 q 580 387 587 415 l 613 513 q 617 526 617 537 q 617 549 612 559 q 604 576 588 576 l 289 576 z m 222 693 l 619 693 q 679 693 705 640 q 720 609 720 573 q 720 544 711 513 l 685 415 q 666 342 611 288 q 556 234 497 234 l 197 234 l 132 -10 l 34 -10 z"},"|":{"x_min":0,"x_max":171,"ha":171,"o":"m 235 742 l 333 742 l 119 -59 l 21 -59 z"},"t":{"x_min":0,"x_max":354,"ha":354,"o":"m 458 522 l 426 405 l 243 405 l 180 171 q 177 159 177 148 q 177 135 182 126 q 190 108 206 107 l 346 107 l 315 -10 l 175 -9 q 115 -9 89 44 q 74 75 74 112 q 74 140 83 171 l 223 694 l 320 694 l 274 522 z"},"M":{"x_min":0,"x_max":647,"ha":647,"o":"m 256 -10 l 245 413 l 132 -10 l 34 -10 l 222 693 l 336 693 l 352 107 l 353 107 l 683 693 l 796 693 l 608 -10 l 510 -10 l 624 413 l 386 -10 z"},"g":{"x_min":0,"x_max":500,"ha":500,"o":"m 180 171 q 177 158 177 147 q 177 135 182 125 q 190 107 206 107 l 395 107 l 475 405 l 286 405 q 270 405 251 387 q 233 370 226 342 z m 364 -10 l 175 -10 q 115 -10 89 44 q 74 75 74 111 q 74 139 83 171 l 128 342 q 148 415 203 469 q 257 522 317 522 l 604 522 l 458 -24 q 438 -98 383 -151 q 328 -205 269 -205 l 55 -205 l 86 -88 l 300 -88 q 316 -88 334 -70 q 352 -52 360 -24 z"},"j":{"x_min":0,"x_max":146,"ha":146,"o":"m 152 522 l 250 522 l 104 -24 q 83 -98 29 -151 q -26 -205 -85 -205 l -116 -205 l -84 -88 l -54 -88 q -38 -88 -20 -70 q -2 -52 6 -24 z m 198 693 l 295 693 l 264 576 l 167 576 z"},"i":{"x_min":0,"x_max":171,"ha":171,"o":"m 177 522 l 274 522 l 132 -10 l 34 -10 z m 320 693 l 289 576 l 191 576 l 222 693 z"},"y":{"x_min":0,"x_max":500,"ha":500,"o":"m 506 522 l 604 522 l 458 -24 q 438 -98 383 -151 q 328 -205 269 -205 l 55 -205 l 86 -88 l 300 -88 q 316 -88 334 -70 q 352 -52 360 -24 l 364 -10 l 175 -10 q 115 -10 89 44 q 74 75 74 111 q 74 139 83 171 l 177 522 l 274 522 l 180 171 q 177 158 177 147 q 177 135 182 125 q 190 107 206 107 l 395 107 z"},"@":{"x_min":0,"x_max":537,"ha":537,"o":"m 329 317 q 326 305 326 294 q 326 281 331 272 q 339 254 355 254 l 471 254 l 518 430 l 402 430 q 386 430 368 412 q 350 394 342 366 z m 557 576 l 332 576 q 315 576 297 558 q 279 541 271 513 l 180 171 q 177 158 177 147 q 177 135 182 125 q 190 107 206 107 l 493 107 l 461 -10 l 175 -10 q 115 -10 89 44 q 74 75 74 111 q 74 139 83 171 l 174 513 q 194 586 248 640 q 303 693 363 693 l 686 693 l 537 137 l 324 137 q 264 137 238 190 q 223 221 223 258 q 223 286 231 317 l 245 366 q 264 439 319 493 q 374 547 434 547 l 549 547 z"},".":{"x_min":0,"x_max":171,"ha":171,"o":"m 65 107 l 163 107 l 132 -10 l 34 -10 z"},"p":{"x_min":0,"x_max":500,"ha":500,"o":"m 458 342 q 461 354 461 365 q 461 378 457 388 q 448 405 432 405 l 243 405 l 163 107 l 353 107 q 368 107 386 125 q 405 143 412 171 z m 177 522 l 464 522 q 523 522 549 469 q 564 438 564 401 q 564 374 556 342 l 510 171 q 490 98 436 44 q 381 -10 321 -10 l 132 -10 l 86 -181 l -12 -181 z"},"X":{"x_min":0,"x_max":562,"ha":562,"o":"m 318 342 l 190 693 l 299 693 l 396 429 l 633 693 l 742 693 l 427 342 l 554 -10 l 445 -10 l 349 255 l 111 -10 l 2 -10 z"},"*":{"x_min":0,"x_max":413,"ha":413,"o":"m 422 621 l 520 659 l 518 546 l 417 507 l 446 406 l 349 332 l 322 430 l 243 332 l 186 406 l 268 507 l 189 546 l 246 659 l 325 621 l 357 742 l 455 742 z"},"Y":{"x_min":0,"x_max":562,"ha":562,"o":"m 321 333 l 319 337 l 190 693 l 299 693 l 396 429 l 633 693 l 742 693 l 423 337 l 418 333 l 327 -10 l 229 -10 z"},"c":{"x_min":0,"x_max":500,"ha":500,"o":"m 493 107 l 461 -10 l 175 -10 q 115 -10 89 44 q 74 75 74 111 q 74 139 83 171 l 128 342 q 148 415 203 469 q 257 522 317 522 l 604 522 l 572 405 l 286 405 q 270 405 251 387 q 233 370 226 342 l 180 171 q 177 158 177 147 q 177 135 182 125 q 190 107 206 107 z"},"!":{"x_min":0,"x_max":171,"ha":171,"o":"m 171 137 l 73 137 l 222 693 l 320 693 z m 34 -10 l 65 107 l 163 107 l 132 -10 z"},"/":{"x_min":0,"x_max":372,"ha":372,"o":"m 31 -10 l 426 693 l 525 693 l 129 -10 z"},"[":{"x_min":0,"x_max":391,"ha":391,"o":"m 370 59 l 338 -59 l 21 -59 l 235 742 l 553 742 l 521 625 l 302 625 l 150 59 z"},"6":{"x_min":0,"x_max":574,"ha":574,"o":"m 223 332 l 180 171 q 177 158 177 147 q 177 135 182 125 q 190 107 206 107 l 426 107 q 441 107 460 125 q 478 143 485 171 l 511 269 q 515 282 515 292 q 515 305 510 314 q 501 332 486 332 z m 255 449 l 518 449 q 577 449 603 396 q 618 365 618 329 q 618 300 609 269 l 583 171 q 563 98 509 44 q 454 -10 395 -10 l 175 -10 q 115 -10 89 44 q 74 75 74 111 q 74 139 83 171 l 174 513 q 194 586 248 640 q 303 693 363 693 l 686 693 l 655 576 l 332 576 q 315 576 297 558 q 279 541 271 513 z"},"r":{"x_min":0,"x_max":354,"ha":354,"o":"m 34 -10 l 128 342 q 148 415 203 469 q 257 522 317 522 l 458 522 l 426 405 l 286 405 q 270 405 251 387 q 233 370 226 342 l 132 -10 z"},"2":{"x_min":0,"x_max":574,"ha":574,"o":"m 253 283 q 237 283 219 265 q 201 248 193 220 l 163 107 l 566 107 l 535 -10 l 34 -10 l 96 220 q 115 293 170 347 q 225 400 285 400 l 504 400 q 520 400 538 418 q 556 436 564 464 l 577 513 q 581 526 581 537 q 581 549 576 559 q 567 576 551 576 l 191 576 l 222 693 l 583 693 q 642 693 668 640 q 683 609 683 573 q 683 544 674 513 l 662 464 q 642 391 587 337 q 532 283 473 283 z"},"{":{"x_min":0,"x_max":427,"ha":427,"o":"m 303 220 l 277 122 q 273 109 273 99 q 273 86 278 77 q 287 59 303 59 l 406 59 l 375 -59 l 271 -59 q 211 -59 186 -5 q 171 26 171 62 q 171 90 179 122 l 206 220 q 209 232 209 243 q 209 256 204 266 q 195 283 180 283 l 112 283 l 144 400 l 211 400 q 227 400 245 418 q 263 436 271 464 l 297 562 q 316 635 371 688 q 426 742 486 742 l 589 742 l 558 625 l 455 625 q 438 625 420 607 q 402 589 395 562 l 369 464 q 349 391 300 341 q 312 315 312 282 q 312 254 303 220 z"},"9":{"x_min":0,"x_max":574,"ha":574,"o":"m 534 352 l 577 513 q 581 526 581 537 q 581 549 576 559 q 567 576 551 576 l 332 576 q 315 576 297 558 q 279 541 271 513 l 246 415 q 242 402 242 391 q 242 379 247 370 q 255 352 271 352 z m 502 234 l 240 234 q 180 234 154 288 q 140 319 140 355 q 140 383 148 415 l 174 513 q 194 586 248 640 q 303 693 363 693 l 583 693 q 642 693 668 640 q 683 609 683 573 q 683 544 674 513 l 583 171 q 563 98 509 44 q 454 -10 395 -10 l 71 -10 l 102 107 l 426 107 q 441 107 460 125 q 478 143 485 171 z"}," ":{"x_min":0,"x_max":391,"ha":391,"o":""},"I":{"x_min":0,"x_max":171,"ha":171,"o":"m 222 693 l 320 693 l 132 -10 l 34 -10 z"},"H":{"x_min":0,"x_max":610,"ha":610,"o":"m 222 693 l 320 693 l 242 400 l 583 400 l 662 693 l 759 693 l 571 -10 l 474 -10 l 552 283 l 210 283 l 132 -10 l 34 -10 z"},"4":{"x_min":0,"x_max":574,"ha":574,"o":"m 519 205 l 592 205 l 561 88 l 487 88 l 461 -10 l 364 -10 l 390 88 l 56 88 l 445 693 l 562 693 l 249 205 l 421 205 l 460 352 l 558 352 z"},"~":{"x_min":0,"x_max":537,"ha":537,"o":"m 405 986 l 478 986 q 523 986 542 947 q 552 925 552 897 q 552 877 546 854 q 545 850 545 848 q 545 845 546 843 q 548 840 549 840 l 622 840 q 623 840 626 843 q 630 847 632 854 l 647 913 l 745 913 l 729 854 q 715 801 676 762 q 636 723 591 723 l 518 723 q 473 723 454 762 q 443 785 443 812 q 443 832 449 854 q 450 859 450 861 q 450 864 449 866 q 447 869 447 869 l 374 869 q 373 869 369 866 q 365 862 363 854 l 348 796 l 250 796 l 266 854 q 280 908 320 947 q 360 986 405 986 z"},"D":{"x_min":0,"x_max":610,"ha":610,"o":"m 163 107 l 462 107 q 478 107 496 125 q 515 143 522 171 l 613 513 q 617 526 617 537 q 617 549 612 559 q 604 576 588 576 l 289 576 z m 620 171 q 600 98 545 44 q 491 -10 431 -10 l 34 -10 l 222 693 l 619 693 q 679 693 705 640 q 720 609 720 573 q 720 544 711 513 z"},"^":{"x_min":0,"x_max":537,"ha":537,"o":"m 227 711 l 260 834 l 534 989 l 724 834 l 691 711 l 500 866 z"},"0":{"x_min":0,"x_max":574,"ha":574,"o":"m 180 171 q 177 158 177 147 q 177 135 182 125 q 190 107 206 107 l 426 107 q 441 107 460 125 q 478 143 485 171 l 577 513 q 581 526 581 537 q 581 549 576 559 q 567 576 551 576 l 332 576 q 315 576 297 558 q 279 541 271 513 z m 583 171 q 563 98 509 44 q 454 -10 395 -10 l 175 -10 q 115 -10 89 44 q 74 75 74 111 q 74 139 83 171 l 174 513 q 194 586 248 640 q 303 693 363 693 l 583 693 q 642 693 668 640 q 683 609 683 573 q 683 544 674 513 z"},"F":{"x_min":0,"x_max":610,"ha":610,"o":"m 210 283 l 132 -10 l 34 -10 l 174 513 q 194 586 248 640 q 303 693 363 693 l 759 693 l 728 576 l 332 576 q 315 576 297 558 q 279 541 271 513 l 242 400 l 608 400 l 576 283 z"},"`":{"x_min":0,"x_max":354,"ha":354,"o":"m 292 986 l 487 986 l 516 723 l 400 723 z"},"k":{"x_min":0,"x_max":476,"ha":476,"o":"m 222 693 l 320 693 l 209 278 l 205 274 l 494 522 l 616 522 l 318 268 l 472 -10 l 333 -10 l 233 195 l 173 144 l 132 -10 l 34 -10 z"},"u":{"x_min":0,"x_max":500,"ha":500,"o":"m 506 522 l 604 522 l 510 171 q 490 98 436 44 q 381 -10 321 -10 l 175 -10 q 115 -10 89 44 q 74 75 74 111 q 74 139 83 171 l 177 522 l 274 522 l 180 171 q 177 158 177 147 q 177 135 182 125 q 190 107 206 107 l 353 107 q 368 107 386 125 q 405 143 412 171 z"},"]":{"x_min":0,"x_max":391,"ha":391,"o":"m 272 59 l 424 625 l 204 625 l 235 742 l 553 742 l 338 -59 l 21 -59 l 52 59 z"},"U":{"x_min":0,"x_max":610,"ha":610,"o":"m 180 171 q 177 158 177 147 q 177 135 182 125 q 190 107 206 107 l 462 107 q 478 107 496 125 q 515 143 522 171 l 662 693 l 759 693 l 620 171 q 600 98 545 44 q 491 -10 431 -10 l 175 -10 q 115 -10 89 44 q 74 75 74 111 q 74 139 83 171 l 222 693 l 320 693 z"},"o":{"x_min":0,"x_max":500,"ha":500,"o":"m 180 171 q 177 158 177 147 q 177 135 182 125 q 190 107 206 107 l 353 107 q 368 107 386 125 q 405 143 412 171 l 458 342 q 461 354 461 365 q 461 378 457 388 q 448 405 432 405 l 286 405 q 270 405 251 387 q 233 370 226 342 z m 510 171 q 490 98 436 44 q 381 -10 321 -10 l 175 -10 q 115 -10 89 44 q 74 75 74 111 q 74 139 83 171 l 128 342 q 148 415 203 469 q 257 522 317 522 l 464 522 q 523 522 549 469 q 564 438 564 401 q 564 374 556 342 z"},"N":{"x_min":0,"x_max":610,"ha":610,"o":"m 275 526 l 132 -10 l 34 -10 l 222 693 l 324 693 l 518 157 l 662 693 l 759 693 l 571 -10 l 469 -10 z"},"+":{"x_min":0,"x_max":500,"ha":500,"o":"m 277 283 l 112 283 l 144 400 l 309 400 l 361 596 l 459 596 l 407 400 l 571 400 l 540 283 l 375 283 l 323 88 l 225 88 z"},"G":{"x_min":0,"x_max":610,"ha":610,"o":"m 681 400 l 620 171 q 600 98 545 44 q 491 -10 431 -10 l 175 -10 q 115 -10 89 44 q 74 75 74 111 q 74 139 83 171 l 174 513 q 194 586 248 640 q 303 693 363 693 l 759 693 l 728 576 l 332 576 q 315 576 297 558 q 279 541 271 513 l 180 171 q 177 158 177 147 q 177 135 182 125 q 190 107 206 107 l 462 107 q 478 107 496 125 q 515 143 522 171 l 552 283 l 369 283 l 400 400 z"},"q":{"x_min":0,"x_max":500,"ha":500,"o":"m 180 171 q 177 158 177 147 q 177 135 182 125 q 190 107 206 107 l 395 107 l 475 405 l 286 405 q 270 405 251 387 q 233 370 226 342 z m 416 -181 l 318 -181 l 364 -10 l 175 -10 q 115 -10 89 44 q 74 75 74 111 q 74 139 83 171 l 128 342 q 148 415 203 469 q 257 522 317 522 l 604 522 z"},"d":{"x_min":0,"x_max":500,"ha":500,"o":"m 180 171 q 177 158 177 147 q 177 135 182 125 q 190 107 206 107 l 395 107 l 475 405 l 286 405 q 270 405 251 387 q 233 370 226 342 z m 461 -10 l 175 -10 q 115 -10 89 44 q 74 75 74 111 q 74 139 83 171 l 128 342 q 148 415 203 469 q 257 522 317 522 l 506 522 l 552 693 l 649 693 z"},"1":{"x_min":0,"x_max":171,"ha":171,"o":"m 222 693 l 320 693 l 132 -10 l 34 -10 z"},"5":{"x_min":0,"x_max":574,"ha":574,"o":"m 125 332 l 222 693 l 686 693 l 655 576 l 289 576 l 255 449 l 518 449 q 577 449 603 396 q 618 365 618 329 q 618 300 609 269 l 583 171 q 563 98 509 44 q 454 -10 395 -10 l 34 -10 l 65 107 l 426 107 q 441 107 460 125 q 478 143 485 171 l 511 269 q 515 282 515 292 q 515 305 510 314 q 501 332 486 332 z"}}}
